<svg id="Grupo_286" data-name="Grupo 286" xmlns="http://www.w3.org/2000/svg" xmlns:xlink="http://www.w3.org/1999/xlink" width="32" height="36" viewBox="0 0 45.195 43.757">
  <defs>
    <clipPath id="clip-path">
      <rect id="Rectángulo_155" data-name="Rectángulo 155" width="45.195" height="43.757" fill="#005ce2"/>
    </clipPath>
  </defs>
  <g id="Grupo_286-2" data-name="Grupo 286" clip-path="url(#clip-path)">
    <path id="Trazado_215" data-name="Trazado 215" d="M44.878,16.206A5.988,5.988,0,0,0,39.1,12.014H30.872l-2.5-7.79a6.078,6.078,0,0,0-11.576,0l-2.5,7.79H6.069A6.078,6.078,0,0,0,2.491,23l6.7,4.9L6.642,35.781a6.08,6.08,0,0,0,9.387,6.769l6.556-4.825,6.558,4.82a6.078,6.078,0,0,0,9.385-6.764l-2.546-7.886L42.687,23a5.984,5.984,0,0,0,2.19-6.792m-4.413,3.75L32.66,25.661a1.883,1.883,0,0,0-.682,2.1l2.966,9.172a2.311,2.311,0,0,1-3.569,2.571L23.7,33.856a1.883,1.883,0,0,0-2.23,0L13.8,39.506a2.311,2.311,0,0,1-3.579-2.571l2.976-9.172a1.883,1.883,0,0,0-.682-2.1L4.706,19.956a2.311,2.311,0,0,1,1.364-4.176h9.606a1.883,1.883,0,0,0,1.793-1.307l2.919-9.1a2.311,2.311,0,0,1,4.4,0l2.919,9.1A1.883,1.883,0,0,0,29.5,15.781h9.606a2.311,2.311,0,0,1,1.364,4.176Z" transform="translate(0 0.001)" fill="#005ce2"/>
  </g>
</svg>
