<svg xmlns="http://www.w3.org/2000/svg" xmlns:xlink="http://www.w3.org/1999/xlink" width="32" height="36" viewBox="0 0 43.823 47.41">
  <defs>
    <clipPath id="clip-path">
      <rect id="Rectángulo_151" data-name="Rectángulo 151" width="43.823" height="47.41" fill="#005ce2"/>
    </clipPath>
  </defs>
  <g id="Grupo_284" data-name="Grupo 284" clip-path="url(#clip-path)">
    <path id="Trazado_213" data-name="Trazado 213" d="M31.057,5.731c-1.555-1.318-3.185-2.7-4.845-4.213a5.833,5.833,0,0,0-4.7-1.466A5.622,5.622,0,0,0,17.5,2.621a40.257,40.257,0,0,0-4.924,12.744,12.1,12.1,0,0,1-.941-1.611,3.952,3.952,0,0,0-6.521-.935A17.915,17.915,0,0,0,0,25.508,21.7,21.7,0,0,0,16.249,46.715a23.025,23.025,0,0,0,5.486.7c.059,0,.69-.006.945-.024A21.852,21.852,0,0,0,43.823,25.519c-.008-8.952-5.92-13.971-12.765-19.788M21.685,43.445a7.441,7.441,0,0,1-4.021-1.593A7.352,7.352,0,0,1,14.538,36.8c-.336-3.205,1.64-7.4,5.677-12.131a2.215,2.215,0,0,1,1.694-.775,2.152,2.152,0,0,1,1.666.771c3.7,4.391,5.731,8.442,5.731,11.408a7.5,7.5,0,0,1-6.936,7.355,3.749,3.749,0,0,1-.684.018m11.242-3.758c-.117.091-.245.164-.364.251a11.276,11.276,0,0,0,.694-3.869c0-4.994-3.626-10.345-6.665-13.955a6.126,6.126,0,0,0-4.675-2.174h-.008a6.159,6.159,0,0,0-4.7,2.16c-4.832,5.66-7.051,10.744-6.6,15.113a10.223,10.223,0,0,0,.769,2.944A17.971,17.971,0,0,1,3.96,25.508,13.955,13.955,0,0,1,8.076,15.469,16.139,16.139,0,0,0,9.71,18.159a3.65,3.65,0,0,0,3.766,1.383,3.755,3.755,0,0,0,2.867-2.913,36.863,36.863,0,0,1,4.484-11.9,1.664,1.664,0,0,1,1.2-.759,1.883,1.883,0,0,1,1.522.476c1.7,1.541,3.359,2.964,4.94,4.3,6.6,5.6,11.364,9.649,11.364,16.771a17.85,17.85,0,0,1-6.924,14.17Z" transform="translate(0 0)" fill="#005ce2"/>
  </g>
</svg>
