<svg xmlns="http://www.w3.org/2000/svg" xmlns:xlink="http://www.w3.org/1999/xlink" width="32" height="36" viewBox="0 0 47.422 47.41">
  <defs>
    <clipPath id="clip-path">
      <rect id="Rectángulo_146" data-name="Rectángulo 146" width="47.422" height="47.41" fill="#005ce2"/>
    </clipPath>
  </defs>
  <g id="Grupo_279" data-name="Grupo 279" clip-path="url(#clip-path)">
    <path id="Trazado_212" data-name="Trazado 212" d="M33.582,0a1.975,1.975,0,0,0-1.975,1.975c0,5.826-5.1,7.9-9.877,7.9H7.9a7.9,7.9,0,0,0-7.9,7.9V21.73a7.86,7.86,0,0,0,2.991,6.142L10.047,43.62a6.386,6.386,0,0,0,5.833,3.791,5.891,5.891,0,0,0,5.373-8.3l-4.346-9.482H21.73c4.775,0,9.877,2.076,9.877,7.9a1.975,1.975,0,1,0,3.951,0V1.975A1.975,1.975,0,0,0,33.582,0ZM17.654,40.731a1.942,1.942,0,0,1-1.774,2.728,2.434,2.434,0,0,1-2.224-1.45L8.109,29.632h4.453Zm13.953-11.89a15.256,15.256,0,0,0-9.877-3.161H7.9A3.951,3.951,0,0,1,3.951,21.73V17.779A3.951,3.951,0,0,1,7.9,13.828H21.73a15.257,15.257,0,0,0,9.877-3.151Zm15.606,1.683a1.975,1.975,0,0,1-2.65.886h0l-3.951-1.975A1.976,1.976,0,1,1,42.377,25.9l3.951,1.975a1.975,1.975,0,0,1,.885,2.641ZM39.726,12.745a1.975,1.975,0,0,1,.883-2.65h0l3.951-1.975a1.976,1.976,0,0,1,1.766,3.536L42.377,13.63a1.975,1.975,0,0,1-2.65-.884h0m-.217,7.009a1.975,1.975,0,0,1,1.975-1.975h3.951a1.975,1.975,0,1,1,0,3.951H41.484a1.975,1.975,0,0,1-1.975-1.975" fill="#005ce2"/>
  </g>
</svg>
