<svg xmlns="http://www.w3.org/2000/svg" xmlns:xlink="http://www.w3.org/1999/xlink" width="494" height="424" viewBox="0 0 594.232 554">
  <defs>
    <clipPath id="clip-path">
      <path id="Trazado_102" data-name="Trazado 102" d="M195.4,0C135.818.045,73.931,31.141,39.03,84.984-10.134,160.826,2.9,268.448,63.845,322.8c31.659,28.233,67.417,34.217,80.46,36.226C224.461,371.372,316.892,325.6,351.592,243.9c22.613-53.246,20.007-119.292-10.306-166.7a165.824,165.824,0,0,0-33.728-38.269C263.341,2.471,213.029.393,199.9.056Q197.793,0,195.682,0Z" transform="translate(-8.936 -0.001)" fill="#005ce2"/>
    </clipPath>
    <clipPath id="clip-path-2">
      <rect id="Rectángulo_102" data-name="Rectángulo 102" width="393.232" height="361.57" fill="none"/>
    </clipPath>
    <clipPath id="clip-path-3">
      <path id="Trazado_122" data-name="Trazado 122" d="M201.143,288.52c-16.113,5.018-27.238,5.937-34.78,4.274a39.133,39.133,0,0,0-5.861,22.989c16.15,1.06,30.172-6.856,36.512-11.16a5.108,5.108,0,0,1,7.013,1.191c1.642,2.273,3.044,5.145,1.986,7.447-2.086,4.538,2.995,7.615,3.9,6.013s1.51-12.465,1.51-12.465,7.866,14.216,10.955,19.7,9.711,2.763,9.711,2.763-1.126-24.623-9.275-34.582c-4.627-5.653-10.984-6.875-15.617-6.875a24.7,24.7,0,0,0-6.055.709" transform="translate(-160.443 -287.811)" fill="none"/>
    </clipPath>
    <linearGradient id="linear-gradient" x1="-2.577" y1="1.235" x2="-2.561" y2="1.235" gradientUnits="objectBoundingBox">
      <stop offset="0" stop-color="#febbba"/>
      <stop offset="1" stop-color="#ff928e"/>
    </linearGradient>
    <clipPath id="clip-path-4">
      <rect id="Rectángulo_104" data-name="Rectángulo 104" width="393.232" height="361.57" fill="#1e18cf"/>
    </clipPath>
    <clipPath id="clip-path-5">
      <path id="Trazado_124" data-name="Trazado 124" d="M115.972,176.434a8.081,8.081,0,0,0,1.432,8.634c4.326,4.718,13.1,10.856,27,5.557a12.457,12.457,0,0,0,7.852-9.6l5.328-32.16-29.091-1.778Z" transform="translate(-115.312 -147.09)" fill="none"/>
    </clipPath>
    <linearGradient id="linear-gradient-2" x1="-1.551" y1="3.554" x2="-1.536" y2="3.554" xlink:href="#linear-gradient"/>
    <clipPath id="clip-path-7">
      <path id="Trazado_126" data-name="Trazado 126" d="M73.663,222.05c-1.412,2.287-34.481,56.188-24.154,73.927a1.144,1.144,0,0,0,1.312.524,1.077,1.077,0,0,0,.254-.109,1.146,1.146,0,0,0,.415-1.567c-9.642-16.561,23.784-71.022,24.123-71.57a1.146,1.146,0,0,0-1.95-1.2" transform="translate(-47.515 -221.507)" fill="none"/>
    </clipPath>
    <linearGradient id="linear-gradient-3" x1="-0.31" y1="1.804" x2="-0.296" y2="1.804" gradientUnits="objectBoundingBox">
      <stop offset="0" stop-color="#09005d"/>
      <stop offset="1" stop-color="#1a0f91"/>
    </linearGradient>
    <clipPath id="clip-path-8">
      <path id="Trazado_127" data-name="Trazado 127" d="M132.362,296.719c-6.2,1.717-11.961,4.8-18.187,6.384-6.912,1.759-13.748,3.827-20.708,5.394-10.83,2.439-25.08,5.234-34.59-2.21-.8-.628-7.251-7.919-7.706-7.657-17.27,9.978-20.629,33.292-20.629,44.6,31.487,17.217,81-16.307,94.344-26.105a10.435,10.435,0,0,1,7.608-1.94c5.455.748,14.857,1.753,19.815.638,3.2-.719,7.378,3.77,12.024,8.258,5.887,5.687,12.523,11.375,18.86,6.463,0,0-10.6-35.412-39.748-35.417a41.321,41.321,0,0,0-11.081,1.589" transform="translate(-30.542 -295.13)" fill="none"/>
    </clipPath>
    <linearGradient id="linear-gradient-4" x1="-0.344" y1="0.755" x2="-0.336" y2="0.755" xlink:href="#linear-gradient"/>
    <clipPath id="clip-path-9">
      <path id="Trazado_128" data-name="Trazado 128" d="M125.3,115.33c-3.275,7.792,5.129,28.65,5.129,28.65,5.34,13.523,17,22.3,32.113,21.372S175.815,155.8,176.53,142.9s-7.191-38.508-7.191-38.508-40.764,3.145-44.042,10.939" transform="translate(-124.54 -104.391)" fill="none"/>
    </clipPath>
    <linearGradient id="linear-gradient-5" x1="-1.338" y1="3.305" x2="-1.326" y2="3.305" xlink:href="#linear-gradient"/>
    <clipPath id="clip-path-10">
      <path id="Trazado_129" data-name="Trazado 129" d="M174.958,77.856l-.749,1.1a1.013,1.013,0,0,1-1.836-.4,1.009,1.009,0,0,0-1.774-.477c-2.092,2.653-7.415,6.753-20.57,7.7-18.665,1.336-31.581,7.388-33.288,19.995a1.013,1.013,0,0,1-1.65.651c-1.259-.973-3.376-1.6-6.535.505-5.493,3.663-4.66,14.845,5.344,25.084a1.008,1.008,0,0,1-.227,1.609c-2.141,1.076-5.461,3.836,1.788,8.817,7.415,5.095,12.133,5.155,13.945,4.9a1.014,1.014,0,0,0,.879-.957l.557-11.278a1.013,1.013,0,0,1,1.124-.957l3.994.446,1.874.209s-5.954-16.7,1.14-18.722,34.577-4.509,41.437-13.4c6.614-8.568,2.954-21-4.132-25.152a.935.935,0,0,0-.473-.127,1.036,1.036,0,0,0-.849.455" transform="translate(-105.184 -77.401)" fill="none"/>
    </clipPath>
    <linearGradient id="linear-gradient-6" x1="-0.812" y1="2.923" x2="-0.803" y2="2.923" xlink:href="#linear-gradient-3"/>
    <clipPath id="clip-path-11">
      <path id="Trazado_130" data-name="Trazado 130" d="M126.9,125.9c-7.483,3.594,1.679,17.886,7.238,19.1l2.561-6.637s-1.874-12.983-7.693-12.984a4.851,4.851,0,0,0-2.1.525" transform="translate(-124.083 -125.375)" fill="none"/>
    </clipPath>
    <linearGradient id="linear-gradient-7" x1="-4.495" y1="9.439" x2="-4.456" y2="9.439" xlink:href="#linear-gradient"/>
    <clipPath id="clip-path-12">
      <path id="Trazado_132" data-name="Trazado 132" d="M238.759,333.7l-127.064,1.967a5.514,5.514,0,0,0-5.576,5.485,5.571,5.571,0,0,0,5.508,5.31c.1,0,.194,0,.292,0L238.983,344.5a5.4,5.4,0,1,0-.04-10.8l-.185,0" transform="translate(-106.118 -333.702)" fill="none"/>
    </clipPath>
    <linearGradient id="linear-gradient-8" x1="-0.679" y1="0.855" x2="-0.673" y2="0.855" xlink:href="#linear-gradient-3"/>
    <clipPath id="clip-path-14">
      <path id="Trazado_138" data-name="Trazado 138" d="M10.514,344.756A3.452,3.452,0,0,0,7.629,346.7a7.158,7.158,0,0,0-.787,4.426l2,14.807c.394,2.926,2.184,5.039,4.265,5.039H383.252c2.237,0,4.271-1.862,5.209-4.771l4.1-12.7a8.526,8.526,0,0,0-.282-5.906,4.218,4.218,0,0,0-3.626-2.841Z" transform="translate(-6.775 -344.756)" fill="none"/>
    </clipPath>
    <linearGradient id="linear-gradient-9" x1="-4.065" y1="0.535" x2="-4.043" y2="0.535" xlink:href="#linear-gradient-3"/>
    <clipPath id="clip-path-16">
      <path id="Trazado_140" data-name="Trazado 140" d="M390.473,181.512,216.618,191.695a4.652,4.652,0,0,0-4.351,4.082c-2.137,17.453-11.745,88.363-14.5,108.624a4.651,4.651,0,0,0,4.751,5.273l163-4.664a4.658,4.658,0,0,0,4.415-3.646l25.355-114.192a4.658,4.658,0,0,0-4.539-5.668c-.093,0-.187,0-.281.009" transform="translate(-197.729 -181.503)" fill="none"/>
    </clipPath>
    <linearGradient id="linear-gradient-10" x1="-0.756" y1="1.132" x2="-0.752" y2="1.132" xlink:href="#linear-gradient-3"/>
    <clipPath id="clip-path-17">
      <path id="Trazado_141" data-name="Trazado 141" d="M310.309,264.448l-26.159,1.737a5.375,5.375,0,0,0-4.713,3.577l-24.091,68.375,56.017,1.188,4.664-69.153a5.374,5.374,0,0,0-5.354-5.736c-.12,0-.242,0-.364.013" transform="translate(-255.346 -264.435)" fill="none"/>
    </clipPath>
    <linearGradient id="linear-gradient-11" x1="-3.361" y1="1.304" x2="-3.348" y2="1.304" xlink:href="#linear-gradient-3"/>
    <clipPath id="clip-path-19">
      <path id="Trazado_143" data-name="Trazado 143" d="M322.327,335.38,234.6,339.142a2.91,2.91,0,0,0,.124,5.817h87.725a2.91,2.91,0,0,0,2.909-2.91v-3.761a2.911,2.911,0,0,0-2.907-2.91l-.127,0" transform="translate(-231.815 -335.377)" fill="none"/>
    </clipPath>
    <linearGradient id="linear-gradient-12" x1="-4.063" y1="0.87" x2="-4.047" y2="0.87" xlink:href="#linear-gradient-3"/>
  </defs>
  <g id="Grupo_452" data-name="Grupo 452" transform="translate(-365.831 -1965)">
    <rect id="Rectángulo_188" data-name="Rectángulo 188" width="464" height="542" rx="36" transform="translate(365.831 1977)" fill="#e9effd"/>
    <text id="O_PE_RA_DOR" data-name="O
PE
RA
DOR" transform="translate(393.362 2103)" fill="#bdd0fb" font-size="132" font-family="Roboto-Thin, Roboto" font-weight="200"><tspan x="0" y="0">O</tspan><tspan x="0" y="121">PE</tspan><tspan x="0" y="242">RA</tspan><tspan x="0" y="363">DOR</tspan></text>
    <g id="Grupo_345" data-name="Grupo 345" transform="translate(566.831 2028.549)">
      <g id="Grupo_172" data-name="Grupo 172" transform="translate(8.68 0.001)">
        <g id="Grupo_171" data-name="Grupo 171" clip-path="url(#clip-path)">
          <rect id="Rectángulo_101" data-name="Rectángulo 101" width="532.574" height="533.794" transform="matrix(0.659, -0.753, 0.753, 0.659, -203.112, 210.334)" fill="#005ce2"/>
        </g>
      </g>
      <g id="Grupo_174" data-name="Grupo 174">
        <g id="Grupo_173" data-name="Grupo 173" clip-path="url(#clip-path-2)">
          <path id="Trazado_103" data-name="Trazado 103" d="M148.787,104.368a.8.8,0,0,1-.638-.4c-.519-.915-1.066-1.828-1.626-2.714a.8.8,0,0,1,1.354-.857c.574.907,1.135,1.843,1.666,2.781a.8.8,0,0,1-.3,1.092.791.791,0,0,1-.454.1" transform="translate(-4.192 -2.864)" fill="#91b3fa"/>
          <path id="Trazado_104" data-name="Trazado 104" d="M83.208,205.245c-1.211-.076-2.455-.216-3.664-.371a.8.8,0,0,1-.692-.9.811.811,0,0,1,.9-.693c1.18.153,2.405.272,3.578.363.869.065,1.759.113,2.646.143a.774.774,0,0,1,.773.827.8.8,0,0,1-.827.774c-.909-.03-1.82-.08-2.711-.146m12.931-.3a.8.8,0,0,1-.035-1.594c2-.239,4.012-.573,5.99-.993l.172-.036a.8.8,0,1,1,.333,1.567l-.173.037c-2.025.429-4.088.771-6.132,1.016a.835.835,0,0,1-.155,0M112.214,201a.8.8,0,0,1-.225-1.547c1.945-.739,3.871-1.577,5.726-2.49a.8.8,0,0,1,.707,1.439c-1.9.934-3.874,1.792-5.864,2.548a.815.815,0,0,1-.344.051m14.626-7.738a.8.8,0,0,1-.4-1.455c1.7-1.188,3.359-2.472,4.938-3.816a.8.8,0,1,1,1.038,1.221c-1.618,1.375-3.32,2.69-5.058,3.907a.8.8,0,0,1-.519.143m12.285-11.084a.8.8,0,0,1-.545-1.323c1.357-1.566,2.657-3.216,3.864-4.905a.8.8,0,0,1,1.3.933c-1.237,1.729-2.567,3.418-3.956,5.021a.8.8,0,0,1-.666.275m9.23-13.74a.8.8,0,0,1-.655-1.162c.938-1.85,1.8-3.767,2.56-5.7a.8.8,0,0,1,1.491.589c-.779,1.973-1.661,3.936-2.622,5.831a.8.8,0,0,1-.774.437m5.619-15.568a1,1,0,0,1-.118-.018.8.8,0,0,1-.6-.959c.458-2.026.826-4.1,1.092-6.149a.792.792,0,0,1,.9-.692.8.8,0,0,1,.692.9c-.272,2.1-.649,4.224-1.119,6.3a.8.8,0,0,1-.839.623m1.635-16.477a.8.8,0,0,1-.74-.778c-.051-2.073-.2-4.168-.449-6.229a.8.8,0,1,1,1.591-.19c.252,2.111.406,4.257.459,6.379a.8.8,0,0,1-.781.821.743.743,0,0,1-.081,0m-2.431-16.376a.8.8,0,0,1-.713-.586c-.554-2.007-1.206-4-1.939-5.936a.8.8,0,0,1,1.5-.567c.751,1.978,1.418,4.022,1.985,6.077a.8.8,0,0,1-.559.985.773.773,0,0,1-.273.027" transform="translate(-2.258 -3.219)" fill="#91b3fa"/>
          <path id="Trazado_105" data-name="Trazado 105" d="M69.116,205.368a.811.811,0,0,1-.164-.029c-1.03-.3-2.069-.628-3.089-.975a.8.8,0,1,1,.517-1.516c1,.34,2.013.661,3.018.953a.8.8,0,0,1-.282,1.568" transform="translate(-1.871 -5.808)" fill="#91b3fa"/>
          <path id="Trazado_106" data-name="Trazado 106" d="M26.815,170.617a.8.8,0,0,1-.653-.43c-.491-.947-.969-1.926-1.423-2.912a.8.8,0,1,1,1.456-.669c.442.963.909,1.919,1.39,2.844a.8.8,0,0,1-.342,1.079.793.793,0,0,1-.428.088" transform="translate(-0.706 -4.758)" fill="#91b3fa"/>
          <path id="Trazado_107" data-name="Trazado 107" d="M21.712,155.457a.8.8,0,0,1-.71-.577c-.454-1.575-.857-3.187-1.2-4.793q-.14-.663-.268-1.325a.8.8,0,0,1,1.574-.3q.125.647.261,1.3c.333,1.568.728,3.143,1.17,4.681a.8.8,0,0,1-.83,1.021M19.1,139.38a.8.8,0,0,1-.74-.765c-.085-2.088-.073-4.205.037-6.292a.8.8,0,0,1,.841-.759.815.815,0,0,1,.758.842c-.106,2.039-.118,4.1-.035,6.143a.8.8,0,0,1-.767.833.59.59,0,0,1-.093,0m1.325-16.235a.936.936,0,0,1-.1-.015.8.8,0,0,1-.623-.947c.422-2.047.944-4.1,1.554-6.1a.8.8,0,1,1,1.532.467c-.594,1.951-1.105,3.953-1.517,5.952a.8.8,0,0,1-.843.637m5.195-15.436a.8.8,0,0,1-.663-1.144c.9-1.886,1.9-3.751,2.969-5.546a.8.8,0,1,1,1.375.82c-1.044,1.752-2.019,3.575-2.9,5.415a.8.8,0,0,1-.783.455m8.734-13.746a.8.8,0,0,1-.56-1.306c1.322-1.614,2.737-3.188,4.205-4.677a.8.8,0,0,1,1.14,1.126c-1.433,1.454-2.815,2.99-4.106,4.566a.8.8,0,0,1-.68.291M46.116,82.7a.8.8,0,0,1-.421-1.441c1.671-1.249,3.421-2.437,5.2-3.529a.8.8,0,1,1,.836,1.366c-1.741,1.067-3.45,2.226-5.081,3.446a.8.8,0,0,1-.539.157m14.126-8.094a.8.8,0,0,1-.252-1.538c1.924-.81,3.911-1.54,5.9-2.17a.8.8,0,1,1,.483,1.528c-1.946.615-3.884,1.328-5.764,2.12a.81.81,0,0,1-.37.06M75.9,70.143a.8.8,0,0,1-.066-1.59c2.064-.329,4.168-.567,6.252-.706a.8.8,0,1,1,.107,1.6c-2.035.136-4.089.367-6.106.689a.808.808,0,0,1-.186.009m22.441.2c-.027,0-.055-.006-.083-.01-2.012-.361-4.06-.631-6.09-.8a.8.8,0,0,1,.127-1.6H92.3c2.08.176,4.178.453,6.238.822a.8.8,0,0,1-.2,1.587" transform="translate(-0.524 -1.943)" fill="#91b3fa"/>
          <path id="Trazado_108" data-name="Trazado 108" d="M113.787,74.088a.809.809,0,0,1-.235-.053c-.973-.385-1.972-.752-2.969-1.092a.8.8,0,0,1,.517-1.516c1.021.348,2.045.724,3.041,1.117a.8.8,0,0,1-.354,1.544" transform="translate(-3.151 -2.044)" fill="#91b3fa"/>
          <path id="Trazado_109" data-name="Trazado 109" d="M111.9,91a.808.808,0,0,0-.939.011L103,96.812a42.907,42.907,0,0,0-13.576-2.975l-4.8-8.593a.808.808,0,0,0-.849-.4L72.153,86.925a.809.809,0,0,0-.657.671L69.979,97.32a42.909,42.909,0,0,0-11.7,7.5l-9.475-2.685a.809.809,0,0,0-.885.317l-6.748,9.694a.808.808,0,0,0,.01.939l5.807,7.954a42.874,42.874,0,0,0-2.975,13.576l-8.593,4.8a.81.81,0,0,0-.4.849L37.1,151.892a.811.811,0,0,0,.672.658l9.723,1.517a42.907,42.907,0,0,0,7.5,11.7l-2.684,9.475a.808.808,0,0,0,.316.884l9.694,6.749a.808.808,0,0,0,.939-.011l7.954-5.806A42.881,42.881,0,0,0,84.8,180.031l4.8,8.593a.81.81,0,0,0,.849.4l11.627-2.083a.81.81,0,0,0,.657-.672l1.517-9.723a42.877,42.877,0,0,0,11.7-7.5l9.474,2.685a.809.809,0,0,0,.885-.317l6.749-9.694a.81.81,0,0,0-.011-.939l-5.806-7.954a42.9,42.9,0,0,0,2.975-13.576l8.593-4.8a.809.809,0,0,0,.4-.849l-2.083-11.627a.809.809,0,0,0-.671-.657l-9.724-1.517a42.9,42.9,0,0,0-7.5-11.7l2.684-9.475a.807.807,0,0,0-.316-.884Z" transform="translate(-1.002 -2.429)" fill="#1e18cf"/>
          <path id="Trazado_110" data-name="Trazado 110" d="M87.448,149.79a11.766,11.766,0,0,1-3.273-.728,11.616,11.616,0,1,1,3.273.728m1.534-20.931a9.315,9.315,0,1,0,2.6.578,9.358,9.358,0,0,0-2.6-.578" transform="translate(-2.194 -3.621)" fill="#bdd0fb"/>
          <path id="Trazado_111" data-name="Trazado 111" d="M85.379,167.448A29.736,29.736,0,0,1,58.4,143.057a29.91,29.91,0,0,1-.391-7.5A29.739,29.739,0,0,1,82.4,108.58c.2-.036.408-.071.613-.1a29.858,29.858,0,0,1,5.064-.363c.211,0,.421.008.63.015l-.085,2.4a27.467,27.467,0,0,0-5.8.416,27.108,27.108,0,0,0-16.909,10.335q-.35.462-.682.939a27.131,27.131,0,0,0-4.827,13.515,27.4,27.4,0,0,0,.36,6.9,27.3,27.3,0,1,0,47.465-22.744l1.811-1.579a29.73,29.73,0,0,1-24.667,49.138" transform="translate(-1.659 -3.096)" fill="#bdd0fb"/>
          <path id="Trazado_112" data-name="Trazado 112" d="M238.412,72.331a1.066,1.066,0,0,1-.872-.58c-.629-1.237-1.322-2.455-2.06-3.622a1.067,1.067,0,0,1,1.8-1.14c.773,1.223,1.5,2.5,2.157,3.8a1.066,1.066,0,0,1-1.029,1.547" transform="translate(-6.739 -1.904)" fill="#91b3fa"/>
          <path id="Trazado_113" data-name="Trazado 113" d="M199.485,139.778a1.067,1.067,0,0,1,.006-2.128,45.493,45.493,0,0,0,6.194-.877q1.084-.23,2.142-.508a1.067,1.067,0,0,1,.542,2.063q-1.107.291-2.24.531a47.625,47.625,0,0,1-6.487.919.941.941,0,0,1-.157,0m21.391-7a1.067,1.067,0,0,1-.491-1.967,44.931,44.931,0,0,0,6.683-5.161,1.067,1.067,0,0,1,1.457,1.559,47.251,47.251,0,0,1-7,5.407,1.066,1.066,0,0,1-.648.162m15.515-16.3a1.068,1.068,0,0,1-.849-1.59,45.285,45.285,0,0,0,3.459-7.71,1.067,1.067,0,0,1,2.02.688,47.51,47.51,0,0,1-3.623,8.074,1.069,1.069,0,0,1-1.007.538m5.977-21.7a1.066,1.066,0,0,1-.986-1.086,45.114,45.114,0,0,0-.618-8.427,1.067,1.067,0,0,1,2.1-.355,47.4,47.4,0,0,1,.646,8.826,1.068,1.068,0,0,1-1.089,1.044l-.058,0" transform="translate(-5.684 -2.406)" fill="#91b3fa"/>
          <path id="Trazado_114" data-name="Trazado 114" d="M184.931,140.128a1.063,1.063,0,0,1-.172-.026c-1.411-.341-2.821-.751-4.19-1.22a1.067,1.067,0,1,1,.691-2.018c1.307.448,2.652.839,4,1.164a1.067,1.067,0,0,1-.328,2.1" transform="translate(-5.15 -3.918)" fill="#91b3fa"/>
          <path id="Trazado_115" data-name="Trazado 115" d="M153.963,115.767a1.064,1.064,0,0,1-.868-.572c-.665-1.284-1.28-2.618-1.827-3.967a1.066,1.066,0,1,1,1.977-.8c.522,1.286,1.109,2.56,1.745,3.784a1.067,1.067,0,0,1-1.026,1.555" transform="translate(-4.33 -3.143)" fill="#91b3fa"/>
          <path id="Trazado_116" data-name="Trazado 116" d="M148.847,96.608a1.068,1.068,0,0,1-.982-.97,47.072,47.072,0,0,1-.05-7.6c.027-.369.058-.737.1-1.1a1.1,1.1,0,0,1,1.168-.957,1.068,1.068,0,0,1,.956,1.168c-.035.351-.065.7-.091,1.052a45.03,45.03,0,0,0,.048,7.257,1.068,1.068,0,0,1-.969,1.156,1.157,1.157,0,0,1-.174,0M152.29,74.74a1.069,1.069,0,0,1-.9-1.479,47.594,47.594,0,0,1,4.1-7.669,1.067,1.067,0,0,1,1.782,1.175,45.335,45.335,0,0,0-3.918,7.324,1.07,1.07,0,0,1-1.063.649m13.228-17.748a1.066,1.066,0,0,1-.6-1.887,47.1,47.1,0,0,1,7.2-4.883,1.067,1.067,0,0,1,1.029,1.869,44.954,44.954,0,0,0-6.875,4.662,1.064,1.064,0,0,1-.758.24M185.5,47.465a1.067,1.067,0,0,1-.135-2.109,47.524,47.524,0,0,1,8.645-.969,1.043,1.043,0,0,1,1.088,1.045,1.066,1.066,0,0,1-1.045,1.087,45.45,45.45,0,0,0-8.258.928,1.09,1.09,0,0,1-.3.018" transform="translate(-4.229 -1.271)" fill="#91b3fa"/>
          <path id="Trazado_117" data-name="Trazado 117" d="M213.426,49.769a1.059,1.059,0,0,1-.313-.072c-1.288-.508-2.613-.963-3.941-1.348a1.067,1.067,0,0,1,.6-2.049c1.391.405,2.78.879,4.129,1.412a1.067,1.067,0,0,1-.471,2.056" transform="translate(-5.968 -1.325)" fill="#91b3fa"/>
          <path id="Trazado_118" data-name="Trazado 118" d="M212.245,60.852a.555.555,0,0,0-.643.007l-5.441,3.973a29.329,29.329,0,0,0-9.287-2.036l-3.282-5.878a.553.553,0,0,0-.581-.275l-7.954,1.424a.553.553,0,0,0-.449.459l-1.038,6.652a29.346,29.346,0,0,0-8,5.134l-6.481-1.837a.553.553,0,0,0-.605.217l-4.617,6.631a.555.555,0,0,0,.007.643l3.973,5.441a29.329,29.329,0,0,0-2.036,9.287l-5.878,3.282a.553.553,0,0,0-.275.581l1.425,7.954a.551.551,0,0,0,.459.449L168.19,104a29.345,29.345,0,0,0,5.134,8l-1.837,6.481a.553.553,0,0,0,.217.605l6.631,4.617a.555.555,0,0,0,.643-.007l5.441-3.973a29.336,29.336,0,0,0,9.287,2.036l3.282,5.879a.554.554,0,0,0,.581.274l7.955-1.424a.553.553,0,0,0,.449-.459l1.038-6.652a29.369,29.369,0,0,0,8-5.134l6.481,1.837a.553.553,0,0,0,.605-.217l4.617-6.632a.555.555,0,0,0-.007-.643l-3.972-5.441a29.354,29.354,0,0,0,2.035-9.287l5.879-3.282a.554.554,0,0,0,.274-.581L229.5,82.046a.554.554,0,0,0-.459-.45l-6.652-1.038a29.369,29.369,0,0,0-5.134-8l1.837-6.481a.553.553,0,0,0-.217-.605Z" transform="translate(-4.572 -1.622)" fill="#1e18cf"/>
          <path id="Trazado_119" data-name="Trazado 119" d="M195.444,101.821a8.775,8.775,0,0,1-2.977-16.747h0a8.776,8.776,0,1,1,2.976,16.747m-1.658-13.83a5.575,5.575,0,1,0,7.377,2.783,5.581,5.581,0,0,0-7.377-2.783" transform="translate(-5.364 -2.414)" fill="#bdd0fb"/>
          <path id="Trazado_120" data-name="Trazado 120" d="M194.022,113.905a21.123,21.123,0,0,1-19.16-17.325,21.234,21.234,0,0,1-.279-5.33,21.128,21.128,0,0,1,17.326-19.158,21.236,21.236,0,0,1,4.48-.321l-.114,3.2a17.93,17.93,0,0,0-14.971,7.158c-.041.054-.081.109-.121.165-.083.113-.163.225-.244.341a17.79,17.79,0,0,0-3.164,8.861,17.984,17.984,0,0,0,.236,4.52,17.9,17.9,0,0,0,35.47-1.789,17.978,17.978,0,0,0-4.352-13.119l2.412-2.1a21.1,21.1,0,0,1-12.194,34.626,21.3,21.3,0,0,1-5.327.277" transform="translate(-4.998 -2.055)" fill="#bdd0fb"/>
          <path id="Trazado_121" data-name="Trazado 121" d="M164.894,291.5c-27.732-6.116-6.84-47.256-5.856-48.849l-49.7,17.452s-4.439,23.918,26.488,45.928a44.462,44.462,0,0,0,23.206,8.46,39.138,39.138,0,0,1,5.861-22.99" transform="translate(-3.125 -6.949)" fill="#3e9af6"/>
        </g>
      </g>
      <g id="Grupo_176" data-name="Grupo 176" transform="translate(155.848 279.569)">
        <g id="Grupo_175" data-name="Grupo 175" clip-path="url(#clip-path-3)">
          <rect id="Rectángulo_103" data-name="Rectángulo 103" width="62.223" height="81.435" transform="matrix(0.274, -0.962, 0.962, 0.274, -12.08, 40.867)" fill="url(#linear-gradient)"/>
        </g>
      </g>
      <g id="Grupo_178" data-name="Grupo 178">
        <g id="Grupo_177" data-name="Grupo 177" clip-path="url(#clip-path-4)">
          <path id="Trazado_123" data-name="Trazado 123" d="M52.365,185.076s34.9-27.491,126.42,11.611c0,0,9.9,10.918,6.527,24.224S134.274,308.248,134.5,341.45c0,0-34.439,23.59-82.464,5.845,0,0-21.617-86.229.324-162.219" transform="translate(-1.218 -5.031)" fill="#3e9af6"/>
        </g>
      </g>
      <g id="Grupo_180" data-name="Grupo 180" transform="translate(112.01 142.878)">
        <g id="Grupo_179" data-name="Grupo 179" clip-path="url(#clip-path-5)">
          <rect id="Rectángulo_105" data-name="Rectángulo 105" width="64.791" height="63.612" transform="translate(-24.05 31.166) rotate(-53.022)" fill="url(#linear-gradient-2)"/>
        </g>
      </g>
      <g id="Grupo_182" data-name="Grupo 182">
        <g id="Grupo_181" data-name="Grupo 181" clip-path="url(#clip-path-2)">
          <path id="Trazado_125" data-name="Trazado 125" d="M50.3,295.486c-10.1-17.351,24.137-72.749,24.137-72.749L51.147,185.352S-29.608,281.8,11.825,328.039c5.94,6.629,12.4,10.593,19.118,12.539C32.62,316.425,42.57,302.644,50.3,295.486" transform="translate(0 -5.308)" fill="#3e9af6"/>
        </g>
      </g>
      <g id="Grupo_184" data-name="Grupo 184" transform="translate(46.154 215.164)">
        <g id="Grupo_183" data-name="Grupo 183" clip-path="url(#clip-path-7)">
          <rect id="Rectángulo_107" data-name="Rectángulo 107" width="69.386" height="83.456" transform="translate(-40.852 18.755) rotate(-29.974)" fill="url(#linear-gradient-3)"/>
        </g>
      </g>
      <g id="Grupo_186" data-name="Grupo 186" transform="translate(29.667 286.678)">
        <g id="Grupo_185" data-name="Grupo 185" clip-path="url(#clip-path-8)">
          <rect id="Rectángulo_108" data-name="Rectángulo 108" width="125.645" height="165.835" transform="translate(-25.743 52.761) rotate(-63.991)" fill="url(#linear-gradient-4)"/>
        </g>
      </g>
      <g id="Grupo_188" data-name="Grupo 188" transform="translate(120.974 101.402)">
        <g id="Grupo_187" data-name="Grupo 187" clip-path="url(#clip-path-9)">
          <rect id="Rectángulo_109" data-name="Rectángulo 109" width="79.58" height="81.715" transform="matrix(0.857, -0.516, 0.516, 0.857, -29.868, 16.469)" fill="url(#linear-gradient-5)"/>
        </g>
      </g>
      <g id="Grupo_190" data-name="Grupo 190" transform="translate(102.171 75.185)">
        <g id="Grupo_189" data-name="Grupo 189" clip-path="url(#clip-path-10)">
          <rect id="Rectángulo_110" data-name="Rectángulo 110" width="108.255" height="103.698" transform="translate(-33.373 19.128) rotate(-31.469)" fill="url(#linear-gradient-6)"/>
        </g>
      </g>
      <g id="Grupo_192" data-name="Grupo 192" transform="translate(120.53 121.785)">
        <g id="Grupo_191" data-name="Grupo 191" clip-path="url(#clip-path-11)">
          <rect id="Rectángulo_111" data-name="Rectángulo 111" width="24.926" height="25.724" transform="matrix(0.857, -0.516, 0.516, 0.857, -13.335, 5.221)" fill="url(#linear-gradient-7)"/>
        </g>
      </g>
      <g id="Grupo_194" data-name="Grupo 194" transform="translate(103.079 324.146)">
        <g id="Grupo_193" data-name="Grupo 193" clip-path="url(#clip-path-12)">
          <path id="Trazado_131" data-name="Trazado 131" d="M102.165,344.255,232.4,382.691l15.882-48.974L118.048,295.281Z" transform="translate(-106.005 -332.602)" fill="url(#linear-gradient-8)"/>
        </g>
      </g>
      <g id="Grupo_196" data-name="Grupo 196">
        <g id="Grupo_195" data-name="Grupo 195" clip-path="url(#clip-path-2)">
          <path id="Trazado_133" data-name="Trazado 133" d="M161.489,154.741c-22.639,1.92-41.161-15.807-41.292-16.073v-4c.125.255,19.642,19.956,41.162,18.13Z" transform="translate(-3.442 -3.857)" fill="#005ce2"/>
          <path id="Trazado_134" data-name="Trazado 134" d="M171.873,154.242a2.592,2.592,0,0,1-2.429,2.728h-6.478a2.746,2.746,0,0,1,0-5.455h6.478a2.592,2.592,0,0,1,2.429,2.728" transform="translate(-4.597 -4.339)" fill="#005ce2"/>
          <path id="Trazado_135" data-name="Trazado 135" d="M131.879,113.106s-5.171-27.586,26.72-27.74a.372.372,0,0,0,.084-.734c-8.735-2.014-34.093-4.995-34.476,28.109,4.86,1.749,7.671.365,7.671.365" transform="translate(-3.557 -2.392)" fill="#005ce2"/>
          <path id="Trazado_136" data-name="Trazado 136" d="M125.763,110.507c-12.446,2.526-10.916,18.265-10.916,18.265-.9,11.421,2.437,17.082,6.708,19.781a9.834,9.834,0,0,0,15.049-7.6c.23-3.108.493-6.062.724-7.112.559-2.542.879-25.864-11.565-23.338" transform="translate(-3.285 -3.159)" fill="#005ce2"/>
          <path id="Trazado_137" data-name="Trazado 137" d="M127,114.608a5.657,5.657,0,0,0-6.171,3.332c-7.438,17.23,1.7,28.439,6.178,28.673,4.726.246,4.629-22.487,3.626-28.315A4.153,4.153,0,0,0,127,114.608" transform="translate(-3.379 -3.28)" fill="#005ce2"/>
        </g>
      </g>
      <g id="Grupo_198" data-name="Grupo 198" transform="translate(6.581 334.883)">
        <g id="Grupo_197" data-name="Grupo 197" clip-path="url(#clip-path-14)">
          <rect id="Rectángulo_113" data-name="Rectángulo 113" width="43.743" height="387.335" transform="translate(-1.333 26.164) rotate(-87.397)" fill="url(#linear-gradient-9)"/>
        </g>
      </g>
      <g id="Grupo_200" data-name="Grupo 200">
        <g id="Grupo_199" data-name="Grupo 199" clip-path="url(#clip-path-2)">
          <path id="Trazado_139" data-name="Trazado 139" d="M383.239,371.428H13.1c-2.314,0-4.3-2.29-4.73-5.445l-2-14.806a7.592,7.592,0,0,1,.846-4.722,3.89,3.89,0,0,1,3.29-2.182H388.639c1.665,0,3.18,1.166,4.053,3.12a8.954,8.954,0,0,1,.3,6.24l-4.1,12.7c-1,3.1-3.218,5.1-5.654,5.1M7.293,351.051l2,14.807c.362,2.685,1.961,4.633,3.8,4.633H383.239c2.022,0,3.891-1.745,4.763-4.445l4.1-12.7a8,8,0,0,0-.263-5.571c-.718-1.606-1.913-2.565-3.2-2.565H10.5a2.991,2.991,0,0,0-2.479,1.714,6.636,6.636,0,0,0-.729,4.128" transform="translate(-0.18 -9.859)" fill="#91b3fa"/>
        </g>
      </g>
      <g id="Grupo_202" data-name="Grupo 202" transform="translate(192.066 176.305)">
        <g id="Grupo_201" data-name="Grupo 201" clip-path="url(#clip-path-16)">
          <rect id="Rectángulo_115" data-name="Rectángulo 115" width="231.631" height="191.759" transform="translate(-43.845 17.012) rotate(-21.359)" fill="url(#linear-gradient-10)"/>
        </g>
      </g>
      <g id="Grupo_204" data-name="Grupo 204" transform="translate(248.034 256.862)">
        <g id="Grupo_203" data-name="Grupo 203" clip-path="url(#clip-path-17)">
          <rect id="Rectángulo_116" data-name="Rectángulo 116" width="72.122" height="83.691" transform="translate(-11.864 1.929) rotate(-9.236)" fill="url(#linear-gradient-11)"/>
        </g>
      </g>
      <g id="Grupo_206" data-name="Grupo 206">
        <g id="Grupo_205" data-name="Grupo 205" clip-path="url(#clip-path-2)">
          <path id="Trazado_142" data-name="Trazado 142" d="M311.781,339.787l-.448-.009-56.664-1.2,24.305-68.986A5.839,5.839,0,0,1,284.1,265.7l26.16-1.737a5.843,5.843,0,0,1,6.216,6.224Zm-55.8-2.12,54.922,1.165,4.634-68.706a4.906,4.906,0,0,0-5.219-5.225l-26.16,1.737a4.9,4.9,0,0,0-4.3,3.264Z" transform="translate(-7.293 -7.559)" fill="#91b3fa"/>
        </g>
      </g>
      <g id="Grupo_208" data-name="Grupo 208" transform="translate(225.177 325.773)">
        <g id="Grupo_207" data-name="Grupo 207" clip-path="url(#clip-path-19)">
          <rect id="Rectángulo_118" data-name="Rectángulo 118" width="59.548" height="83.886" transform="matrix(0.548, -0.836, 0.836, 0.548, -4.863, 6.703)" fill="url(#linear-gradient-12)"/>
        </g>
      </g>
      <g id="Grupo_210" data-name="Grupo 210">
        <g id="Grupo_209" data-name="Grupo 209" clip-path="url(#clip-path-2)">
          <path id="Trazado_144" data-name="Trazado 144" d="M322.438,345.413H234.713a3.377,3.377,0,0,1-3.209-4.431,3.394,3.394,0,0,1,3.065-2.322l87.724-3.762a3.378,3.378,0,0,1,3.523,3.375v3.763a3.382,3.382,0,0,1-3.377,3.377m0-9.581-.108,0L234.608,339.6a2.454,2.454,0,0,0-2.215,1.678,2.442,2.442,0,0,0,2.32,3.2h87.725a2.443,2.443,0,0,0,2.44-2.44v-3.763a2.439,2.439,0,0,0-2.437-2.441" transform="translate(-6.625 -9.59)" fill="#91b3fa"/>
          <path id="Trazado_145" data-name="Trazado 145" d="M210.127,268.117l-1.156-.146,8.009-63.159a8.224,8.224,0,0,1,7.658-7.172l150.238-9.073.071,1.163L224.709,198.8a7.057,7.057,0,0,0-6.573,6.155Z" transform="translate(-5.984 -5.4)" fill="#91b3fa"/>
          <rect id="Rectángulo_119" data-name="Rectángulo 119" width="13.783" height="1.165" transform="translate(198.977 294.235) rotate(-82.816)" fill="#91b3fa"/>
        </g>
      </g>
    </g>
  </g>
</svg>
