<svg xmlns="http://www.w3.org/2000/svg" xmlns:xlink="http://www.w3.org/1999/xlink" width="150" height="49.671" viewBox="0 0 197.958 49.671">
  <defs>
    <clipPath id="clip-path">
      <rect id="Rectángulo_16" data-name="Rectángulo 16" width="197.958" height="49.671" fill="none"/>
    </clipPath>
  </defs>
  <g id="Grupo_1" data-name="Grupo 1" transform="translate(0 0)">
    <g id="Grupo_7" data-name="Grupo 7" transform="translate(0 0)" clip-path="url(#clip-path)">
      <text id="Lat" transform="translate(69.01 36.141)" fill="#332b40" font-size="36" font-family="Roboto-Bold, Roboto" font-weight="700"><tspan x="0" y="0" letter-spacing="0.06em">L</tspan><tspan y="0" letter-spacing="0.059em">a</tspan><tspan y="0">t</tspan></text>
      <text id="Sell" transform="translate(128.749 36.141)" fill="#332b40" font-size="36" font-family="Roboto-Regular, Roboto"><tspan x="0" y="0" letter-spacing="0.059em">S</tspan><tspan y="0" letter-spacing="0.06em">el</tspan><tspan y="0">l</tspan></text>
      <path id="Trazado_13" data-name="Trazado 13" d="M0,49.547c2.235.243,29.376.054,34.118.056,4.062,0,6.449-.279,9.458-2.073a13.931,13.931,0,0,0,5.887-15.69,13.73,13.73,0,0,0-13.031-9.827c.527-1.181,5.894-9.089,7.08-10.937C45.2,8.45,49.411,2.323,50.644.117,48.458-.122,24.183.079,19.761.079c-3.62,0-6.016.013-8.834,1.664a12.929,12.929,0,0,0,.494,22.838c1.422.742,2.7.8,3.9,1.363C14.806,27.353,1.3,46.984,0,49.547M18.674,21.009c-.351.551-.332.684-.935.945-3.928-.056-6.567-1.82-7.987-4.2A8.906,8.906,0,0,1,17.73,4.177c3.886-.011,7.987-.115,11.849.019-.6,1.3-9.008,13.823-10.906,16.814m1.694,5.082,8.406.066-4.3,6.716c-.742,1.177-1.39,2.155-2.146,3.312a31.153,31.153,0,0,0-2.179,3.541l14.567.019-3.677,5.762-23.481.037c.434-1.028,5.229-8.125,6.269-9.766.421-.664,5.917-9.54,6.547-9.687m13.75-.026c4.022.007,6.126.377,8.682,2.52a9.769,9.769,0,0,1,.345,14.069,9.07,9.07,0,0,1-6.935,2.834l3.116-4.836c1.091-1.677,2.225-3.289,3.2-4.923l-14.844-.062c.337-.68,5.569-9.6,6.431-9.6M31.772,21.98l-8.806,0c.533-1.27,4.724-7.38,5.817-9.051,1.943-2.974,3.9-5.824,5.745-8.792l8.6.063Z" transform="translate(0 0)" fill="#005ce2" fill-rule="evenodd"/>
    </g>
  </g>
</svg>
